<svg id="visual" viewBox="0 0 1000 600" width="1000" height="600" xmlns="http://www.w3.org/2000/svg" xmlns:xlink="http://www.w3.org/1999/xlink" version="1.1"><rect x="0" y="0" width="1000" height="600" fill="#ffffff"></rect><path d="M252 0L411 86L375 171L319 257L384 343L261 429L362 514L397 600L0 600L0 514L0 429L0 343L0 257L0 171L0 86L0 0Z" fill="#009473"></path><path d="M336 0L242 86L212 171L308 257L254 343L314 429L212 514L244 600L0 600L0 514L0 429L0 343L0 257L0 171L0 86L0 0Z" fill="#009994"></path><path d="M175 0L192 86L219 171L202 257L218 343L257 429L244 514L196 600L0 600L0 514L0 429L0 343L0 257L0 171L0 86L0 0Z" fill="#009cad"></path><path d="M178 0L158 86L149 171L136 257L158 343L183 429L179 514L170 600L0 600L0 514L0 429L0 343L0 257L0 171L0 86L0 0Z" fill="#449ebd"></path><path d="M57 0L74 86L92 171L103 257L83 343L81 429L69 514L55 600L0 600L0 514L0 429L0 343L0 257L0 171L0 86L0 0Z" fill="#6e9ec5"></path></svg>